<svg width="142" height="41" viewBox="0 0 142 41" fill="none" xmlns="http://www.w3.org/2000/svg">
<path fill-rule="evenodd" clip-rule="evenodd" d="M141 40L141 4.44194e-08L142 0L142 40L141 40Z" fill="#007BFF"/>
<path fill-rule="evenodd" clip-rule="evenodd" d="M71 40L142 40.0001L142 41.0001L71 41L71 40Z" fill="#007BFF"/>
<path fill-rule="evenodd" clip-rule="evenodd" d="M0 40L0 1H1L1 40H0Z" fill="#FF1049"/>
<path fill-rule="evenodd" clip-rule="evenodd" d="M71 41H0.12677V40H71V41Z" fill="#FF1049"/>
<path d="M42.6115 23.072L40.1155 23C38.3875 23 36.9875 23.064 35.9155 23.192C35.8355 23.096 35.7955 22.96 35.7955 22.784L35.8195 22.592C36.7795 22.368 37.3875 22.128 37.6435 21.872C37.8995 21.616 38.0515 21.072 38.0995 20.24C38.1475 19.408 38.1715 18.544 38.1715 17.648C38.1715 16.736 38.1235 15.352 38.0275 13.496L37.8355 9.56C37.0995 10.92 35.9475 13.232 34.3795 16.496C32.8275 19.76 31.8195 22.088 31.3555 23.48H30.6835C27.5635 16.424 25.5635 12.128 24.6835 10.592L23.6755 8.864C23.6115 10.848 23.5795 13.272 23.5795 16.136C23.5795 18.984 23.6755 21.024 23.8675 22.256C24.2195 22.304 24.8435 22.328 25.7395 22.328C25.7875 22.456 25.8115 22.6 25.8115 22.76C25.8115 22.904 25.7875 23.008 25.7395 23.072L23.0275 23C21.9235 23 20.9955 23.064 20.2435 23.192C20.1635 23.096 20.1235 22.96 20.1235 22.784L20.1475 22.592C20.9315 22.416 21.4515 22.16 21.7075 21.824C21.9795 21.488 22.1555 21.048 22.2355 20.504C22.6195 17.768 22.8435 13.456 22.9075 7.568C22.4755 7.024 22.0035 6.64 21.4915 6.416C21.4275 6.4 20.9795 6.336 20.1475 6.224L20.0755 5.888C20.0755 5.728 20.0995 5.6 20.1475 5.504L23.9875 5.408C24.2275 5.408 24.6355 5.832 25.2115 6.68C25.8035 7.528 26.3875 8.472 26.9635 9.512C27.5395 10.536 28.2035 11.872 28.9555 13.52C29.7235 15.168 30.3635 16.592 30.8755 17.792C31.3875 18.992 31.6755 19.648 31.7395 19.76C31.9475 19.296 32.9315 17.208 34.6915 13.496C36.4515 9.768 37.6115 7.176 38.1715 5.72C39.7875 5.72 41.0755 5.648 42.0355 5.504C42.1155 5.648 42.1555 5.848 42.1555 6.104C41.3555 6.28 40.8195 6.544 40.5475 6.896C40.2755 7.248 40.1235 7.624 40.0915 8.024C40.0595 8.424 40.0435 9.176 40.0435 10.28C40.0435 11.384 40.0915 13.256 40.1875 15.896C40.2995 18.536 40.4675 20.656 40.6915 22.256C40.9955 22.304 41.6355 22.328 42.6115 22.328C42.6595 22.44 42.6835 22.568 42.6835 22.712C42.6835 22.856 42.6595 22.976 42.6115 23.072ZM53.0191 14.264L52.9471 20.12C52.9471 21.288 53.3231 21.872 54.0751 21.872L54.9391 21.848C55.0031 21.928 55.0351 22.056 55.0351 22.232L54.9871 22.496C53.7551 22.72 52.8751 23.048 52.3471 23.48C51.9951 23.384 51.6911 23.168 51.4351 22.832C51.1951 22.48 51.0591 22.112 51.0271 21.728C49.7471 22.512 48.4751 23.096 47.2111 23.48C46.6671 23.48 46.1071 23.176 45.5311 22.568C44.9551 21.944 44.6671 21.168 44.6671 20.24C44.6671 19.776 44.7711 19.36 44.9791 18.992C45.1871 18.608 45.4351 18.344 45.7231 18.2C46.9071 17.608 48.6671 17.088 51.0031 16.64V14.36C51.0031 13.48 50.8591 12.824 50.5711 12.392C50.2991 11.96 49.9631 11.744 49.5631 11.744C49.1791 11.744 48.7631 11.816 48.3151 11.96C47.8671 12.088 47.5471 12.344 47.3551 12.728C47.1791 13.112 47.0911 13.656 47.0911 14.36C47.0911 14.424 46.9791 14.496 46.7551 14.576C46.5471 14.64 46.2751 14.672 45.9391 14.672C45.6191 14.672 45.3951 14.6 45.2671 14.456C45.1551 14.296 45.0991 14.064 45.0991 13.76C45.0991 13.184 45.5151 12.56 46.3471 11.888C46.5391 11.76 47.0991 11.544 48.0271 11.24C48.9711 10.936 49.5151 10.784 49.6591 10.784C50.8111 10.784 51.6591 11.12 52.2031 11.792C52.7471 12.464 53.0191 13.288 53.0191 14.264ZM46.8031 20.12C46.8031 20.504 46.9551 20.92 47.2591 21.368C47.5631 21.816 47.9071 22.04 48.2911 22.04C48.6911 22.04 49.1471 21.904 49.6591 21.632C50.1711 21.36 50.5951 21.072 50.9311 20.768C50.9791 19.824 51.0031 18.736 51.0031 17.504C49.6591 17.68 48.4751 18.064 47.4511 18.656C47.0191 18.864 46.8031 19.352 46.8031 20.12ZM60.439 21.584C59.879 21.888 59.599 22.192 59.599 22.496C59.599 22.784 59.751 23.04 60.055 23.264C60.359 23.504 60.807 23.648 61.399 23.696L64.903 24.056C67.367 24.296 68.599 25.448 68.599 27.512C68.599 28.696 67.815 29.76 66.247 30.704C64.679 31.648 62.951 32.12 61.063 32.12C59.655 32.12 58.455 31.72 57.463 30.92C56.471 30.136 55.975 29.136 55.975 27.92C55.975 27.744 56.071 27.584 56.263 27.44L59.767 25.112C58.263 24.568 57.511 23.712 57.511 22.544C57.511 22.416 57.671 22.248 57.991 22.04C58.695 21.624 59.783 21.056 61.255 20.336C59.815 20.24 58.695 19.76 57.895 18.896C57.095 18.016 56.695 17.072 56.695 16.064C56.695 15.04 56.887 14.184 57.271 13.496C57.655 12.792 58.127 12.256 58.687 11.888C59.839 11.152 60.903 10.784 61.879 10.784C62.567 10.784 63.183 10.872 63.727 11.048C64.271 11.208 64.655 11.288 64.879 11.288L68.263 10.712C68.455 10.968 68.551 11.256 68.551 11.576C68.551 11.88 68.503 12.128 68.407 12.32C67.767 12.288 66.791 12.264 65.479 12.248C65.943 12.664 66.303 13.16 66.559 13.736C66.831 14.296 66.967 14.848 66.967 15.392C66.951 16.464 66.631 17.352 66.007 18.056C65.399 18.76 64.351 19.512 62.863 20.312L60.439 21.584ZM58.159 28.232C58.159 28.792 58.503 29.384 59.191 30.008C59.895 30.648 60.911 30.968 62.239 30.968C63.567 30.968 64.639 30.672 65.455 30.08C66.271 29.504 66.679 28.752 66.679 27.824C66.679 26.496 65.759 25.744 63.919 25.568C62.879 25.472 61.823 25.392 60.751 25.328L58.927 26.768C58.415 27.2 58.159 27.688 58.159 28.232ZM58.759 15.104C58.759 16.176 59.079 17.192 59.719 18.152C60.375 19.096 61.151 19.568 62.047 19.568C62.943 19.568 63.631 19.248 64.111 18.608C64.607 17.952 64.855 17.048 64.855 15.896C64.855 14.744 64.551 13.736 63.943 12.872C63.351 12.008 62.583 11.576 61.639 11.576C60.711 11.576 59.999 11.896 59.503 12.536C59.007 13.176 58.759 14.032 58.759 15.104ZM70.5304 12.224L69.5944 12.248C69.5304 12.168 69.4984 12.064 69.4984 11.936C69.4984 11.808 69.5144 11.696 69.5464 11.6C70.6344 11.456 71.5224 11.232 72.2104 10.928C72.4344 10.832 72.5704 10.784 72.6184 10.784C72.7624 10.784 72.9384 11.008 73.1464 11.456C73.3544 11.904 73.5304 12.4 73.6744 12.944C75.2904 12.032 76.8664 11.312 78.4024 10.784C79.3784 10.784 80.1304 11.176 80.6584 11.96C81.1864 12.728 81.4504 13.752 81.4504 15.032L81.4024 18.2C81.4024 20.872 81.5224 22.232 81.7624 22.28C82.0024 22.312 82.4504 22.328 83.1064 22.328C83.1704 22.44 83.2024 22.56 83.2024 22.688C83.2024 22.816 83.1704 22.944 83.1064 23.072L80.8984 23C79.5704 23 78.5144 23.064 77.7304 23.192C77.6504 23.096 77.6104 22.96 77.6104 22.784L77.6344 22.592C78.0984 22.48 78.4584 22.328 78.7144 22.136C78.9704 21.928 79.1304 21.736 79.1944 21.56C79.2744 21.368 79.3384 21.088 79.3864 20.72C79.4344 20.336 79.4584 19.6 79.4584 18.512V16.52C79.4584 15.4 79.3304 14.456 79.0744 13.688C78.9624 13.384 78.8344 13.16 78.6904 13.016C78.3384 12.632 77.9144 12.44 77.4184 12.44C76.9224 12.44 76.4264 12.536 75.9304 12.728C75.4344 12.92 75.0584 13.096 74.8024 13.256C74.5464 13.416 74.1864 13.656 73.7224 13.976C73.6584 15.24 73.6264 16.936 73.6264 19.064C73.6264 21.176 73.7304 22.248 73.9384 22.28C74.1624 22.312 74.5704 22.328 75.1624 22.328C75.2264 22.44 75.2584 22.56 75.2584 22.688C75.2584 22.816 75.2264 22.944 75.1624 23.072L73.1224 23C71.9064 23 70.8504 23.064 69.9544 23.192C69.8744 23.096 69.8344 22.96 69.8344 22.784L69.8584 22.592C70.3224 22.48 70.6824 22.328 70.9384 22.136C71.1944 21.928 71.3544 21.736 71.4184 21.56C71.4984 21.368 71.5624 21.024 71.6104 20.528C71.6744 20.016 71.7064 18.928 71.7064 17.264C71.7064 15.6 71.6984 14.68 71.6824 14.504C71.6824 14.312 71.6744 14.072 71.6584 13.784C71.6424 13.496 71.6104 13.28 71.5624 13.136C71.5144 12.992 71.4424 12.84 71.3464 12.68C71.1864 12.376 70.9144 12.224 70.5304 12.224ZM90.4951 23.072L88.3351 23C87.2151 23 86.1591 23.064 85.1671 23.192C85.0711 23.064 85.0231 22.928 85.0231 22.784L85.0711 22.592C85.7591 22.432 86.2231 22.184 86.4631 21.848C86.6391 21.592 86.7751 21.288 86.8711 20.936C86.9671 20.568 87.0151 19.528 87.0151 17.816V15.512C87.0151 14.52 86.9671 13.832 86.8711 13.448C86.7911 13.064 86.6631 12.808 86.4871 12.68C86.3111 12.552 86.0791 12.472 85.7911 12.44L84.9031 12.368C84.8551 12.304 84.8311 12.2 84.8311 12.056L84.9031 11.744C85.7351 11.568 86.4071 11.392 86.9191 11.216C87.4471 11.024 88.0631 10.752 88.7671 10.4C88.9431 10.4 89.0631 10.496 89.1271 10.688C88.9351 11.776 88.8391 14.368 88.8391 18.464C88.8391 19.2 88.8631 20.016 88.9111 20.912C88.9751 21.792 89.0551 22.24 89.1511 22.256C89.3911 22.304 89.8391 22.328 90.4951 22.328C90.5431 22.44 90.5671 22.568 90.5671 22.712C90.5671 22.856 90.5431 22.976 90.4951 23.072ZM88.2391 7.664C87.6631 7.264 87.2551 6.736 87.0151 6.08C87.2071 5.856 87.4631 5.624 87.7831 5.384C88.1191 5.128 88.4071 4.952 88.6471 4.856C89.2551 5.304 89.6471 5.84 89.8231 6.464C89.3751 7.04 88.8471 7.44 88.2391 7.664ZM96.1443 17.84C96.1443 20.496 96.6003 21.824 97.5123 21.824C98.1843 21.824 99.0563 21.6 100.128 21.152C100.368 21.232 100.488 21.456 100.488 21.824C99.3203 22.448 97.9763 23 96.4563 23.48C95.7043 23.48 95.1283 23.096 94.7283 22.328C94.3443 21.56 94.1523 20.528 94.1523 19.232V13.664C94.1523 12.72 94.0963 12.248 93.9843 12.248L92.2083 12.272C92.0963 12.24 92.0403 12.16 92.0403 12.032C92.1203 11.872 92.1923 11.584 92.2563 11.168H93.9603C94.0883 11.168 94.1523 10.888 94.1523 10.328L94.1283 8.288C94.7203 8.048 95.3283 7.552 95.9523 6.8C96.1443 6.8 96.2883 6.848 96.3843 6.944C96.2403 8.624 96.1683 10.032 96.1683 11.168C97.3363 11.168 98.4883 11.112 99.6243 11C99.7363 11.064 99.7923 11.16 99.7923 11.288C99.6963 11.448 99.6163 11.744 99.5523 12.176L96.1443 12.224V17.84ZM107.505 21.752C108.817 21.752 109.977 21.4 110.985 20.696C111.209 20.776 111.337 20.944 111.369 21.2L108.777 23.024C108.393 23.328 107.537 23.48 106.209 23.48C104.881 23.48 103.753 22.888 102.825 21.704C101.897 20.504 101.433 18.992 101.433 17.168C101.433 15.344 101.937 13.904 102.945 12.848C103.953 11.792 105.153 11.104 106.545 10.784C107.761 10.784 108.833 11.192 109.761 12.008C110.321 12.488 110.713 13.112 110.937 13.88C110.985 14.072 111.209 14.176 111.609 14.192C111.705 14.304 111.753 14.424 111.753 14.552C111.753 14.664 111.737 14.784 111.705 14.912C108.889 15.568 106.121 16.024 103.401 16.28C103.401 18.328 103.969 19.864 105.105 20.888C105.745 21.464 106.545 21.752 107.505 21.752ZM109.017 14.432C109.097 14.384 109.137 14.328 109.137 14.264C109.137 14.184 109.033 13.96 108.825 13.592C108.633 13.208 108.289 12.808 107.793 12.392C107.297 11.96 106.777 11.744 106.233 11.744C105.689 11.744 105.289 11.824 105.033 11.984C104.137 12.592 103.625 13.696 103.497 15.296C104.361 15.296 105.345 15.208 106.449 15.032C107.553 14.84 108.409 14.64 109.017 14.432ZM120.359 12.272C119.879 11.856 119.263 11.648 118.511 11.648C116.959 11.648 116.183 12.272 116.183 13.52C116.183 13.92 116.327 14.304 116.615 14.672C116.919 15.024 117.287 15.304 117.719 15.512L119.591 16.4C121.415 17.28 122.327 18.456 122.327 19.928C122.327 21.016 121.895 21.88 121.031 22.52C120.167 23.16 119.143 23.48 117.959 23.48C117.335 23.48 116.679 23.416 115.991 23.288C115.319 23.176 114.839 23.056 114.551 22.928C114.503 22.208 114.359 21.208 114.119 19.928C114.295 19.816 114.439 19.76 114.551 19.76C114.679 19.76 114.767 19.776 114.815 19.808C115.135 20.768 115.415 21.384 115.655 21.656C115.831 21.832 116.143 22.024 116.591 22.232C117.039 22.44 117.567 22.544 118.175 22.544C118.799 22.544 119.335 22.376 119.783 22.04C120.231 21.704 120.455 21.2 120.455 20.528C120.455 20.08 120.367 19.744 120.191 19.52C120.015 19.296 119.863 19.128 119.735 19.016C119.623 18.888 119.487 18.776 119.327 18.68C119.183 18.584 119.055 18.512 118.943 18.464C118.847 18.4 118.743 18.344 118.631 18.296C118.535 18.232 118.479 18.2 118.463 18.2L116.663 17.336C115.111 16.6 114.335 15.536 114.335 14.144C114.335 13.008 114.767 12.168 115.631 11.624C116.495 11.064 117.471 10.784 118.559 10.784C119.087 10.784 119.679 10.856 120.335 11C121.007 11.128 121.511 11.264 121.847 11.408C121.735 11.792 121.607 12.688 121.463 14.096C121.383 14.16 121.271 14.192 121.127 14.192C120.999 14.192 120.871 14.176 120.743 14.144C120.615 13.344 120.487 12.72 120.359 12.272Z" fill="#007BFF"/>
</svg>
